<?xml version="1.0" standalone="no"?>
<!DOCTYPE svg PUBLIC "-//W3C//DTD SVG 20010904//EN"
 "http://www.w3.org/TR/2001/REC-SVG-20010904/DTD/svg10.dtd">
<svg version="1.0" xmlns="http://www.w3.org/2000/svg"
 width="300.000000pt" height="300.000000pt" viewBox="0 0 300.000000 300.000000"
 preserveAspectRatio="xMidYMid meet">
<metadata>
Created by potrace 1.10, written by Peter Selinger 2001-2011
</metadata>
<g transform="translate(0.000000,300.000000) scale(0.100000,-0.100000)"
fill="#000000" stroke="none">
<path d="M746 2754 c-324 -50 -521 -152 -637 -330 -23 -36 -50 -95 -60 -132
-24 -86 -25 -251 -2 -345 14 -59 14 -80 5 -145 -16 -101 -15 -156 3 -239 29
-137 78 -234 192 -380 128 -165 425 -394 555 -428 27 -8 52 -16 55 -19 3 -2 0
-36 -7 -73 -11 -60 -10 -77 4 -126 31 -108 146 -214 292 -271 139 -54 426
-114 574 -121 85 -4 102 -2 160 22 36 14 97 48 137 75 72 50 266 220 313 274
14 16 52 61 86 99 173 199 373 499 452 681 69 159 102 286 106 423 7 186 -26
318 -108 429 -113 153 -272 227 -512 239 -156 7 -302 -13 -562 -78 -198 -50
-281 -60 -300 -36 -6 7 -20 55 -32 107 -48 213 -163 332 -366 375 -85 18 -229
18 -348 -1z m346 -39 c99 -21 152 -48 213 -109 65 -64 87 -113 121 -256 14
-57 30 -110 36 -117 23 -29 141 -14 375 46 406 104 690 92 881 -38 152 -103
218 -254 216 -496 -1 -234 -77 -435 -279 -745 -127 -194 -246 -341 -415 -511
-170 -171 -298 -265 -399 -295 -59 -17 -166 -15 -268 6 -26 5 -105 21 -174 35
-314 64 -489 181 -515 343 -8 48 11 133 36 165 l18 23 -86 18 c-72 14 -100 27
-171 73 -252 163 -446 363 -532 547 -64 138 -87 304 -55 410 13 44 13 54 -6
125 -27 100 -30 262 -5 341 70 225 259 357 602 424 149 29 305 33 407 11z"/>
<path d="M775 2589 c-277 -38 -472 -143 -547 -297 -31 -62 -33 -74 -33 -167 0
-76 6 -118 24 -176 23 -75 23 -78 7 -141 -30 -122 -18 -224 44 -353 70 -145
210 -297 395 -430 154 -110 166 -114 378 -135 121 -12 137 -16 137 -36 0 -8
-36 -53 -79 -99 -87 -92 -104 -130 -81 -185 30 -72 159 -149 319 -190 105 -27
360 -70 413 -70 157 0 524 350 788 750 222 337 304 604 256 831 -35 162 -122
254 -291 306 -47 14 -92 18 -210 17 -168 0 -233 -10 -503 -80 -266 -68 -386
-60 -441 29 -11 19 -32 83 -46 143 -55 229 -119 283 -345 289 -63 2 -146 -1
-185 -6z m348 -58 c84 -41 121 -106 157 -281 25 -126 97 -190 224 -198 71 -4
192 14 286 43 25 8 88 24 140 36 456 102 726 42 810 -181 22 -57 25 -80 24
-195 0 -153 -13 -209 -84 -368 -165 -369 -580 -871 -833 -1006 -70 -38 -106
-38 -327 -1 -214 35 -363 91 -431 163 -57 59 -47 100 52 203 74 78 83 108 42
145 -26 23 -43 28 -114 34 -171 15 -231 30 -305 78 -109 71 -173 122 -258 205
-217 212 -288 389 -241 600 14 64 14 71 -9 157 -31 116 -29 237 5 311 51 109
173 191 357 241 133 35 187 42 332 39 107 -1 132 -5 173 -25z"/>
<path d="M2155 1946 c42 -19 57 -49 65 -136 7 -71 7 -72 9 -20 0 30 -4 72 -9
92 -11 39 -51 78 -79 78 -9 -1 -2 -7 14 -14z"/>
<path d="M1905 1874 c-60 -31 -99 -52 -85 -48 31 8 200 92 200 99 0 6 11 11
-115 -51z"/>
<path d="M1993 1856 c-141 -71 -191 -90 -291 -111 -95 -19 -123 -14 -178 34
-45 40 -81 46 -259 45 -128 0 -159 -3 -209 -22 -167 -61 -213 -158 -139 -294
32 -58 83 -101 197 -167 115 -67 347 -183 419 -209 109 -41 210 -27 368 53
159 79 216 152 245 312 19 108 31 353 17 377 -7 13 -8 2 -5 -37 5 -62 -13
-294 -30 -372 -16 -78 -66 -163 -117 -200 -67 -49 -204 -114 -278 -132 -98
-24 -159 -11 -339 76 -347 168 -458 248 -489 355 -23 77 -7 127 53 173 70 53
166 77 307 78 167 0 206 -8 261 -56 40 -35 51 -39 98 -39 82 0 214 43 369 120
77 39 133 70 124 70 -8 0 -64 -24 -124 -54z"/>
<path d="M1175 1883 c-22 -3 -44 -8 -48 -12 -5 -5 2 -7 15 -4 13 2 59 8 103
12 65 7 70 8 25 8 -30 0 -73 -2 -95 -4z"/>
<path d="M1358 1873 c18 -2 45 -2 60 0 15 2 0 4 -33 4 -33 0 -45 -2 -27 -4z"/>
<path d="M1045 1856 c-147 -47 -217 -125 -213 -242 1 -51 2 -53 5 -14 6 85 14
110 45 146 38 43 101 81 176 104 31 10 50 18 42 18 -8 1 -33 -5 -55 -12z"/>
<path d="M1494 1850 c27 -11 60 -29 75 -42 l26 -23 -20 24 c-21 25 -89 61
-115 60 -8 0 7 -9 34 -19z"/>
<path d="M840 1541 c0 -44 76 -139 149 -186 31 -19 43 -25 26 -13 -72 56 -126
114 -150 161 -14 28 -25 45 -25 38z"/>
<path d="M2127 1305 c-27 -42 -64 -79 -117 -118 -24 -17 -24 -17 8 0 18 10 47
32 64 48 32 31 82 104 76 110 -2 2 -16 -16 -31 -40z"/>
<path d="M1140 1265 c0 -2 27 -18 60 -35 33 -17 60 -28 60 -25 0 2 -27 18 -60
35 -33 17 -60 28 -60 25z"/>
<path d="M1920 1140 c-30 -16 -51 -29 -47 -30 10 0 107 49 107 55 0 7 1 7 -60
-25z"/>
<path d="M1420 1121 c30 -16 66 -31 80 -35 14 -4 -8 9 -49 29 -88 42 -109 46
-31 6z"/>
</g>
</svg>
